# xmcd
#
# Track frame offsets: 
#        150
#        13915
#        43442
#        65942
#        86593
#        111835
#        133690
#        159043
#        173443
#        181523
#        207420
#
# Disc length: 3142 seconds
#
# Revision: 1
# Processed by: cddbd v1.5.2PL0 Copyright (c) Steve Scherf et al.
# Submitted via: ExactAudioCopy v0.95b1
#
DISCID=920c440b
DTITLE=Robson Fernandes - Sampa Blues
DYEAR=1900
DGENRE=Blues
TTITLE0=Sampa's Boogie
TTITLE1=Mr. Sonny Boy
TTITLE2=Slow for Walter
TTITLE3=Blues in The Dark
TTITLE4=Alpha Blues
TTITLE5=364 Boogie
TTITLE6=Memories From Home
TTITLE7=Mojo Instrumental
TTITLE8=Harmonica I
TTITLE9=Raise Four
TTITLE10=Samba's Boogie
EXTD=
EXTT0=
EXTT1=
EXTT2=
EXTT3=
EXTT4=
EXTT5=
EXTT6=
EXTT7=
EXTT8=
EXTT9=
EXTT10=
PLAYORDER=
